<svg height="20pt" viewBox="-167 0 512 512" width="20pt" xmlns="http://www.w3.org/2000/svg"><path d="m102.929688 512h-28.496094c-2.449219 0-4.4375-1.984375-4.4375-4.4375v-466.296875c0-10.082031 8.171875-18.257813 18.253906-18.257813h.859375c10.082031 0 18.253906 8.171876 18.253906 18.257813v466.296875c0 2.453125-1.984375 4.4375-4.433593 4.4375zm0 0" fill="#4e5a61"/><path d="m177.359375 6.425781v436.101563c0 3.550781-2.875 6.425781-6.425781 6.425781h-164.507813c-3.550781 0-6.425781-2.875-6.425781-6.425781v-436.101563c0-3.550781 2.875-6.425781 6.425781-6.425781h164.507813c3.550781 0 6.425781 2.875 6.425781 6.425781zm0 0" fill="#4e5a61"/><path d="m161.789062 6.425781v436.101563c0 3.550781-2.875 6.425781-6.425781 6.425781h-133.367187c-3.550782 0-6.425782-2.875-6.425782-6.425781v-436.101563c0-3.550781 2.875-6.425781 6.425782-6.425781h133.367187c3.550781 0 6.425781 2.875 6.425781 6.425781zm0 0" fill="#5f6c75"/><path d="m144.109375 88.679688c0 25.949218-17.84375 47.75-41.933594 53.769531-4.320312 1.089843-8.847656 1.660156-13.496093 1.660156-30.613282 0-55.429688-24.816406-55.429688-55.429687 0-30.613282 24.816406-55.421876 55.429688-55.421876 4.648437 0 9.175781.570313 13.496093 1.660157 24.089844 6.023437 41.933594 27.8125 41.933594 53.761719zm0 0" fill="#d63030"/><path d="m144.109375 224.476562c0 25.949219-17.84375 47.75-41.933594 53.769532-4.320312 1.089844-8.847656 1.660156-13.496093 1.660156-30.613282 0-55.429688-24.820312-55.429688-55.429688 0-30.613281 24.816406-55.433593 55.429688-55.433593 4.648437 0 9.175781.574219 13.496093 1.664062 24.089844 6.019531 41.933594 27.816407 41.933594 53.769531zm0 0" fill="#ffa90b"/><path d="m144.109375 360.273438c0 25.949218-17.84375 47.738281-41.933594 53.757812-4.320312 1.089844-8.847656 1.660156-13.496093 1.660156-30.613282 0-55.429688-24.808594-55.429688-55.417968 0-30.613282 24.816406-55.433594 55.429688-55.433594 4.648437 0 9.175781.570312 13.496093 1.660156 24.089844 6.023438 41.933594 27.820312 41.933594 53.773438zm0 0" fill="#498d2d"/><path d="m130.617188 88.679688c0 25.949218-17.84375 47.75-41.9375 53.769531-24.09375-6.019531-41.9375-27.820313-41.9375-53.769531 0-25.949219 17.84375-47.738282 41.9375-53.761719 24.09375 6.023437 41.9375 27.8125 41.9375 53.761719zm0 0" fill="#f95353"/><path d="m130.617188 224.476562c0 25.949219-17.84375 47.75-41.9375 53.769532-24.09375-6.019532-41.9375-27.820313-41.9375-53.769532 0-25.953124 17.84375-47.75 41.9375-53.769531 24.09375 6.019531 41.9375 27.816407 41.9375 53.769531zm0 0" fill="#ffc14f"/><path d="m130.617188 360.273438c0 25.949218-17.84375 47.738281-41.9375 53.757812-24.09375-6.019531-41.9375-27.808594-41.9375-53.757812 0-25.953126 17.84375-47.75 41.9375-53.773438 24.09375 6.023438 41.9375 27.820312 41.9375 53.773438zm0 0" fill="#5db33a"/></svg>